# xmcd
# 
# Track frame offsets:
#     150
#     12618
#     25878
#     38963
#     49868
#     61390
#     74853
#     88648
#     102400
#     116325
#     130613
# 
# Disc length: 1897
# 
# Revision: 8
# Processed by: cddbd v1.5.2PL0 Copyright (c) Steve Scherf et al.
# Submitted via: fre:ac v1.0.31
# 
DISCID=9a07670b
DTITLE=Otis Redding - The Dock Of The Bay
DYEAR=1968
DGENRE=R&B
TTITLE0=(Sittin' On) The Dock Of The Bay
TTITLE1=I Love You More Than Words Can Say
TTITLE2=Let Me Come On Home
TTITLE3=Open The Door
TTITLE4=Don't Mess With Cupid
TTITLE5=Glory Of Love
TTITLE6=I'm Coming Home To See About You
TTITLE7=Tramp
TTITLE8=The Huckle-Buck
TTITLE9=Nobody Knows You (When You're Down And Out)
TTITLE10=Ole Man Trouble
EXTD=YEAR: 1968
EXTT0=
EXTT1=
EXTT2=
EXTT3=
EXTT4=
EXTT5=
EXTT6=
EXTT7=
EXTT8=
EXTT9=
EXTT10=
PLAYORDER=
